<svg width="61" height="32" viewBox="0 0 61 32" fill="none" xmlns="http://www.w3.org/2000/svg">
<foreignObject x="-16" y="-16" width="93" height="64"><div xmlns="http://www.w3.org/1999/xhtml" style="backdrop-filter:blur(8px);clip-path:url(#bgblur_0_6020_6784_clip_path);height:100%;width:100%"></div></foreignObject><g data-figma-bg-blur-radius="16">
<path d="M10 16C10 16 14 21 19 21C24 21 28 16 28 16C28 16 24 22 19 22C14 22 10 16 10 16Z" fill="#121212"/>
<path d="M33 16C33 16 37 21 42 21C47 21 51 16 51 16C51 16 47 22 42 22C37 22 33 16 33 16Z" fill="#121212"/>
</g>
<defs>
<clipPath id="bgblur_0_6020_6784_clip_path" transform="translate(16 16)"><rect width="61" height="32" rx="6"/>
</clipPath></defs>
</svg>
