<svg width="61" height="32" viewBox="0 0 61 32" fill="none" xmlns="http://www.w3.org/2000/svg">
<foreignObject x="-16" y="-16" width="93" height="64"><div xmlns="http://www.w3.org/1999/xhtml" style="backdrop-filter:blur(8px);clip-path:url(#bgblur_0_6020_6759_clip_path);height:100%;width:100%"></div></foreignObject><g data-figma-bg-blur-radius="16">
<path d="M10 16C10 16 14 10 19 10C24 10 28 16 28 16C28 16 24 22 19 22C14 22 10 16 10 16ZM19 19.8182C19.9283 19.8182 20.8185 19.4159 21.4749 18.6999C22.1313 17.9838 22.5 17.0126 22.5 16C22.5 14.9874 22.1313 14.0162 21.4749 13.3001C20.8185 12.5841 19.9283 12.1818 19 12.1818C18.0717 12.1818 17.1815 12.5841 16.5251 13.3001C15.8687 14.0162 15.5 14.9874 15.5 16C15.5 17.0126 15.8687 17.9838 16.5251 18.6999C17.1815 19.4159 18.0717 19.8182 19 19.8182Z" fill="#575758"/>
<circle cx="19" cy="16" r="4" fill="white"/>
<circle cx="19" cy="16" r="4.25" stroke="#F8F9FA" stroke-opacity="0.15" stroke-width="0.5"/>
<circle cx="19" cy="16" r="2" fill="#575758"/>
<circle cx="19" cy="16" r="2.25" stroke="#F8F9FA" stroke-opacity="0.15" stroke-width="0.5"/>
<path d="M33 16C33 16 37 10 42 10C47 10 51 16 51 16C51 16 47 22 42 22C37 22 33 16 33 16ZM42 19.8182C42.9283 19.8182 43.8185 19.4159 44.4749 18.6999C45.1313 17.9838 45.5 17.0126 45.5 16C45.5 14.9874 45.1313 14.0162 44.4749 13.3001C43.8185 12.5841 42.9283 12.1818 42 12.1818C41.0717 12.1818 40.1815 12.5841 39.5251 13.3001C38.8687 14.0162 38.5 14.9874 38.5 16C38.5 17.0126 38.8687 17.9838 39.5251 18.6999C40.1815 19.4159 41.0717 19.8182 42 19.8182Z" fill="#575758"/>
<circle cx="42" cy="16" r="4" fill="white"/>
<circle cx="42" cy="16" r="4.25" stroke="#F8F9FA" stroke-opacity="0.15" stroke-width="0.5"/>
<circle cx="42" cy="16" r="2" fill="#575758"/>
<circle cx="42" cy="16" r="2.25" stroke="#F8F9FA" stroke-opacity="0.15" stroke-width="0.5"/>
</g>
<defs>
<clipPath id="bgblur_0_6020_6759_clip_path" transform="translate(16 16)"><rect width="61" height="32" rx="6"/>
</clipPath></defs>
</svg>
