<svg width="13" height="13" viewBox="0 0 13 13" fill="none" xmlns="http://www.w3.org/2000/svg">
<mask id="path-1-outside-1_6484_17069" maskUnits="userSpaceOnUse" x="-0.900391" y="-0.898438" width="14" height="14" fill="black">
<rect fill="white" x="-0.900391" y="-0.898438" width="14" height="14"/>
<path fill-rule="evenodd" clip-rule="evenodd" d="M1.79205 9.504C1.66759 9.62847 1.6051 9.792 1.6051 9.95552C1.6051 10.119 1.66759 10.2826 1.79205 10.407C1.91652 10.5315 2.08006 10.594 2.24357 10.594C2.40711 10.594 2.57063 10.5315 2.69509 10.407C2.81956 10.282 2.88205 10.119 2.88205 9.95552C2.88205 9.79199 2.81956 9.62847 2.69509 9.504C2.57011 9.37901 2.40709 9.31704 2.24357 9.31704C2.08004 9.31704 1.91652 9.37954 1.79205 9.504ZM1.53478 9.24673C1.73061 9.0509 1.98682 8.95301 2.24357 8.95301C2.50032 8.95301 2.75656 9.05092 2.95236 9.24673C3.14817 9.44254 3.24609 9.69877 3.24609 9.95552C3.24609 10.2123 3.14818 10.4685 2.95236 10.6643C2.75655 10.8601 2.50032 10.958 2.24357 10.958C1.98682 10.958 1.73059 10.8601 1.53478 10.6643C1.33897 10.4685 1.24106 10.2123 1.24106 9.95552C1.24106 9.69877 1.33897 9.44254 1.53478 9.24673ZM9.50075 1.79525C9.37628 1.92024 9.31379 2.08325 9.31379 2.24677C9.31379 2.4103 9.37628 2.57382 9.50075 2.69829C9.62521 2.82276 9.78875 2.88525 9.95227 2.88525C10.1158 2.88525 10.2793 2.82276 10.4038 2.69829C10.5283 2.57383 10.5907 2.41029 10.5907 2.24677C10.5907 2.08324 10.5282 1.91972 10.4038 1.79525C10.2788 1.67026 10.1158 1.6083 9.95227 1.6083C9.78873 1.6083 9.62521 1.67079 9.50075 1.79525ZM9.24347 1.53798C9.4393 1.34216 9.69551 1.24426 9.95227 1.24426C10.209 1.24426 10.4652 1.34217 10.6611 1.53798C10.8569 1.73379 10.9548 1.99002 10.9548 2.24677C10.9548 2.50352 10.8569 2.75975 10.6611 2.95556C10.4652 3.15137 10.209 3.24928 9.95227 3.24928C9.69551 3.24928 9.43928 3.15138 9.24347 2.95556C9.04766 2.75975 8.94975 2.50352 8.94975 2.24677C8.94975 1.99002 9.04766 1.73379 9.24347 1.53798ZM5.83804 7.26454L3.95701 9.14558C3.90285 9.19974 3.88983 9.27942 3.91847 9.34608C4.03409 9.6648 4.05595 10.0101 3.98409 10.3392C3.91378 10.66 3.7539 10.9652 3.50392 11.2152C3.15603 11.5631 2.70035 11.737 2.24414 11.737C1.78792 11.737 1.33225 11.5631 0.984356 11.2152C0.636467 10.8673 0.462522 10.4116 0.462522 9.9554C0.462522 9.49918 0.636467 9.04351 0.984356 8.69562C1.23433 8.44564 1.53952 8.28576 1.86032 8.21544C2.19258 8.14253 2.54151 8.16545 2.86283 8.28419C2.93157 8.30919 3.005 8.29044 3.05396 8.242L4.93246 6.36404L5.83863 7.265L5.83804 7.26454ZM6.35778 4.93768L8.23882 3.05665C8.29298 3.00249 8.306 2.92281 8.27735 2.85615C8.16174 2.53743 8.13987 2.19214 8.21174 1.86301C8.28204 1.54221 8.44193 1.23702 8.69191 0.987044C9.03979 0.639155 9.49547 0.46521 9.95169 0.46521C10.4079 0.46521 10.8636 0.639155 11.2115 0.987044C11.5594 1.33493 11.7333 1.79061 11.7333 2.24683C11.7333 2.70304 11.5594 3.15872 11.2115 3.50661C10.9615 3.75659 10.6563 3.91647 10.3355 3.98678C10.0032 4.05969 9.65431 4.03677 9.333 3.91804C9.26425 3.89304 9.19082 3.91179 9.14187 3.96022L7.26337 5.83819L6.35719 4.93723L6.35778 4.93768ZM2.80396 0.219832C3.12424 0.304721 3.42474 0.47085 3.67315 0.717708C3.94501 0.987991 4.11999 1.32077 4.19811 1.6744C4.2757 2.02333 4.25956 2.39256 4.15019 2.74253L6.10002 4.68089L7.902 2.87892C7.79263 2.52425 7.77753 2.14669 7.85669 1.78631C7.94158 1.39885 8.13426 1.03064 8.43528 0.730147C8.85399 0.311437 9.40342 0.101562 9.95234 0.101562C10.5013 0.101562 11.0502 0.310917 11.4694 0.730147C11.8881 1.14886 12.098 1.69829 12.098 2.24721C12.098 2.79614 11.8886 3.34504 11.4694 3.76428C11.1689 4.06477 10.8007 4.25746 10.4132 4.34287C10.0523 4.42203 9.67529 4.40692 9.32064 4.29756L7.52293 6.09527L9.46863 8.0295C9.81807 7.91805 10.1873 7.8993 10.5368 7.97481C10.8904 8.05137 11.2242 8.22427 11.4966 8.49507C11.7455 8.74245 11.9132 9.04191 12.0002 9.36114C12.0897 9.69029 12.0934 10.0418 12.0116 10.3819C11.9986 10.436 11.972 10.4819 11.9366 10.5173C11.9012 10.5527 11.858 10.5777 11.8111 10.5912C11.7653 10.6043 11.7158 10.6053 11.6674 10.5938C11.6179 10.5819 11.571 10.5574 11.532 10.5183L10.6097 9.60122L9.83109 9.81213L9.62486 10.5918L10.5477 11.5089C10.5873 11.5479 10.6123 11.5948 10.6242 11.6432C10.6362 11.6917 10.6347 11.7411 10.6222 11.788C10.6091 11.8349 10.5847 11.8781 10.5493 11.9135C10.5138 11.9494 10.4685 11.9765 10.4144 11.9895C10.0759 12.0729 9.72381 12.0713 9.39364 11.9833C9.07336 11.8984 8.77287 11.7323 8.52445 11.4854C8.25259 11.2151 8.07761 10.8823 7.99949 10.5287C7.9219 10.1798 7.93804 9.81056 8.04741 9.4606L6.09758 7.52223L4.29561 9.32421C4.40497 9.67887 4.42007 10.0564 4.34091 10.4168C4.25603 10.8043 4.06334 11.1725 3.76233 11.473C3.34362 11.8917 2.79418 12.1016 2.24526 12.1016C1.69635 12.1016 1.14744 11.8922 0.728194 11.473C0.309484 11.0543 0.0996094 10.5048 0.0996094 9.95591C0.0996094 9.407 0.308964 8.85809 0.728194 8.43885C1.02869 8.13835 1.39688 7.94566 1.78435 7.86026C2.14526 7.7811 2.52232 7.7962 2.87696 7.90556L4.67467 6.10786L2.72898 4.17363C2.37953 4.28508 2.01029 4.30382 1.66084 4.22831C1.30724 4.15176 0.973412 3.97885 0.701036 3.70805C0.452098 3.46067 0.284406 3.16122 0.197441 2.84198C0.107865 2.51284 0.10422 2.16131 0.185983 1.82124C0.199003 1.76708 0.225564 1.72125 0.260977 1.68584C0.29639 1.65043 0.339615 1.62543 0.386487 1.61189C0.432316 1.59887 0.48179 1.59783 0.530221 1.60929C0.579695 1.62127 0.626567 1.64574 0.665622 1.6848L1.5421 2.55608L2.32068 2.34517L2.52691 1.56555L1.65043 0.694263C1.61085 0.655204 1.58585 0.608333 1.57387 0.559901C1.56189 0.511988 1.56346 0.461993 1.57596 0.415127C1.58898 0.368257 1.61345 0.325031 1.64887 0.289617C1.68428 0.254203 1.72959 0.226601 1.78375 0.213583C2.12226 0.130257 2.47431 0.131819 2.80448 0.219832H2.80396ZM3.41746 0.974979C3.6388 1.19475 3.78097 1.46556 3.8445 1.75303C3.91116 2.05248 3.89293 2.37172 3.7919 2.67326C3.77419 2.72533 3.77211 2.77897 3.78409 2.82949C3.79607 2.88053 3.82211 2.92792 3.86168 2.96698L5.96417 5.05692C5.96677 5.06005 5.96989 5.06317 5.97302 5.0663C5.97614 5.06942 5.97979 5.07307 5.98343 5.07567L7.12812 6.2136C7.13072 6.21672 7.13385 6.21985 7.13697 6.22297C7.1401 6.2261 7.14374 6.22974 7.14739 6.23235L9.24614 8.31856C9.2852 8.35762 9.33259 8.38314 9.38362 8.39512C9.43518 8.4071 9.48882 8.40449 9.54038 8.38679C9.84087 8.28367 10.1596 8.26388 10.4596 8.32846C10.7481 8.39095 11.0194 8.53104 11.2402 8.7503C11.4418 8.9508 11.5777 9.19401 11.6485 9.4544C11.7105 9.6825 11.723 9.92258 11.686 10.1585L10.833 9.31065C10.7965 9.2742 10.7523 9.2492 10.7043 9.23618C10.6564 9.22316 10.6059 9.22316 10.5564 9.2367L9.69349 9.47105C9.64349 9.48459 9.59974 9.51011 9.56485 9.54552C9.52996 9.58094 9.50444 9.62468 9.49142 9.67468L9.26227 10.5397C9.24925 10.5897 9.24925 10.6397 9.26175 10.6871V10.6876C9.27477 10.735 9.29976 10.7788 9.33674 10.8152L10.1893 11.6631C9.95283 11.7016 9.71223 11.6912 9.48463 11.6302C9.22424 11.561 8.98052 11.4266 8.77844 11.2261C8.5571 11.0064 8.41493 10.7355 8.3514 10.4481C8.28474 10.1486 8.30297 9.82938 8.404 9.52785C8.42171 9.47577 8.42379 9.42212 8.41181 9.37161C8.39983 9.32057 8.37379 9.27318 8.33421 9.23412L6.23173 7.14418C6.22913 7.14105 6.22601 7.13793 6.22288 7.1348C6.21976 7.13168 6.21611 7.12803 6.21246 7.12543L5.06778 5.9875C5.06518 5.98438 5.06205 5.98125 5.05893 5.97813C5.0558 5.975 5.05216 5.97136 5.04851 5.96875L2.94976 3.88254C2.9107 3.84348 2.86331 3.81796 2.81228 3.80598C2.76072 3.794 2.70708 3.79661 2.65552 3.81431C2.35503 3.91743 2.03631 3.93722 1.73634 3.87264C1.44782 3.81015 1.17649 3.67006 0.955672 3.4508C0.75413 3.2503 0.618209 3.00709 0.547375 2.7467C0.485402 2.5186 0.472903 2.27852 0.509878 2.0426L1.31658 2.84461C1.35304 2.88107 1.3973 2.90607 1.44521 2.91909C1.49313 2.9321 1.54364 2.93211 1.59312 2.91856L2.45607 2.68421H2.45659C2.50607 2.67067 2.54929 2.64515 2.58471 2.60974C2.6196 2.57433 2.64512 2.53058 2.65814 2.48058L2.88729 1.61555C2.90083 1.56556 2.90031 1.51504 2.88781 1.46765C2.87479 1.42026 2.84979 1.37651 2.81282 1.34005L2.00612 0.538046C2.24255 0.499508 2.48315 0.509923 2.71075 0.570855C2.97114 0.64012 3.21486 0.774477 3.41694 0.974979L3.41746 0.974979Z"/>
</mask>
<path fill-rule="evenodd" clip-rule="evenodd" d="M1.79205 9.504C1.66759 9.62847 1.6051 9.792 1.6051 9.95552C1.6051 10.119 1.66759 10.2826 1.79205 10.407C1.91652 10.5315 2.08006 10.594 2.24357 10.594C2.40711 10.594 2.57063 10.5315 2.69509 10.407C2.81956 10.282 2.88205 10.119 2.88205 9.95552C2.88205 9.79199 2.81956 9.62847 2.69509 9.504C2.57011 9.37901 2.40709 9.31704 2.24357 9.31704C2.08004 9.31704 1.91652 9.37954 1.79205 9.504ZM1.53478 9.24673C1.73061 9.0509 1.98682 8.95301 2.24357 8.95301C2.50032 8.95301 2.75656 9.05092 2.95236 9.24673C3.14817 9.44254 3.24609 9.69877 3.24609 9.95552C3.24609 10.2123 3.14818 10.4685 2.95236 10.6643C2.75655 10.8601 2.50032 10.958 2.24357 10.958C1.98682 10.958 1.73059 10.8601 1.53478 10.6643C1.33897 10.4685 1.24106 10.2123 1.24106 9.95552C1.24106 9.69877 1.33897 9.44254 1.53478 9.24673ZM9.50075 1.79525C9.37628 1.92024 9.31379 2.08325 9.31379 2.24677C9.31379 2.4103 9.37628 2.57382 9.50075 2.69829C9.62521 2.82276 9.78875 2.88525 9.95227 2.88525C10.1158 2.88525 10.2793 2.82276 10.4038 2.69829C10.5283 2.57383 10.5907 2.41029 10.5907 2.24677C10.5907 2.08324 10.5282 1.91972 10.4038 1.79525C10.2788 1.67026 10.1158 1.6083 9.95227 1.6083C9.78873 1.6083 9.62521 1.67079 9.50075 1.79525ZM9.24347 1.53798C9.4393 1.34216 9.69551 1.24426 9.95227 1.24426C10.209 1.24426 10.4652 1.34217 10.6611 1.53798C10.8569 1.73379 10.9548 1.99002 10.9548 2.24677C10.9548 2.50352 10.8569 2.75975 10.6611 2.95556C10.4652 3.15137 10.209 3.24928 9.95227 3.24928C9.69551 3.24928 9.43928 3.15138 9.24347 2.95556C9.04766 2.75975 8.94975 2.50352 8.94975 2.24677C8.94975 1.99002 9.04766 1.73379 9.24347 1.53798ZM5.83804 7.26454L3.95701 9.14558C3.90285 9.19974 3.88983 9.27942 3.91847 9.34608C4.03409 9.6648 4.05595 10.0101 3.98409 10.3392C3.91378 10.66 3.7539 10.9652 3.50392 11.2152C3.15603 11.5631 2.70035 11.737 2.24414 11.737C1.78792 11.737 1.33225 11.5631 0.984356 11.2152C0.636467 10.8673 0.462522 10.4116 0.462522 9.9554C0.462522 9.49918 0.636467 9.04351 0.984356 8.69562C1.23433 8.44564 1.53952 8.28576 1.86032 8.21544C2.19258 8.14253 2.54151 8.16545 2.86283 8.28419C2.93157 8.30919 3.005 8.29044 3.05396 8.242L4.93246 6.36404L5.83863 7.265L5.83804 7.26454ZM6.35778 4.93768L8.23882 3.05665C8.29298 3.00249 8.306 2.92281 8.27735 2.85615C8.16174 2.53743 8.13987 2.19214 8.21174 1.86301C8.28204 1.54221 8.44193 1.23702 8.69191 0.987044C9.03979 0.639155 9.49547 0.46521 9.95169 0.46521C10.4079 0.46521 10.8636 0.639155 11.2115 0.987044C11.5594 1.33493 11.7333 1.79061 11.7333 2.24683C11.7333 2.70304 11.5594 3.15872 11.2115 3.50661C10.9615 3.75659 10.6563 3.91647 10.3355 3.98678C10.0032 4.05969 9.65431 4.03677 9.333 3.91804C9.26425 3.89304 9.19082 3.91179 9.14187 3.96022L7.26337 5.83819L6.35719 4.93723L6.35778 4.93768ZM2.80396 0.219832C3.12424 0.304721 3.42474 0.47085 3.67315 0.717708C3.94501 0.987991 4.11999 1.32077 4.19811 1.6744C4.2757 2.02333 4.25956 2.39256 4.15019 2.74253L6.10002 4.68089L7.902 2.87892C7.79263 2.52425 7.77753 2.14669 7.85669 1.78631C7.94158 1.39885 8.13426 1.03064 8.43528 0.730147C8.85399 0.311437 9.40342 0.101562 9.95234 0.101562C10.5013 0.101562 11.0502 0.310917 11.4694 0.730147C11.8881 1.14886 12.098 1.69829 12.098 2.24721C12.098 2.79614 11.8886 3.34504 11.4694 3.76428C11.1689 4.06477 10.8007 4.25746 10.4132 4.34287C10.0523 4.42203 9.67529 4.40692 9.32064 4.29756L7.52293 6.09527L9.46863 8.0295C9.81807 7.91805 10.1873 7.8993 10.5368 7.97481C10.8904 8.05137 11.2242 8.22427 11.4966 8.49507C11.7455 8.74245 11.9132 9.04191 12.0002 9.36114C12.0897 9.69029 12.0934 10.0418 12.0116 10.3819C11.9986 10.436 11.972 10.4819 11.9366 10.5173C11.9012 10.5527 11.858 10.5777 11.8111 10.5912C11.7653 10.6043 11.7158 10.6053 11.6674 10.5938C11.6179 10.5819 11.571 10.5574 11.532 10.5183L10.6097 9.60122L9.83109 9.81213L9.62486 10.5918L10.5477 11.5089C10.5873 11.5479 10.6123 11.5948 10.6242 11.6432C10.6362 11.6917 10.6347 11.7411 10.6222 11.788C10.6091 11.8349 10.5847 11.8781 10.5493 11.9135C10.5138 11.9494 10.4685 11.9765 10.4144 11.9895C10.0759 12.0729 9.72381 12.0713 9.39364 11.9833C9.07336 11.8984 8.77287 11.7323 8.52445 11.4854C8.25259 11.2151 8.07761 10.8823 7.99949 10.5287C7.9219 10.1798 7.93804 9.81056 8.04741 9.4606L6.09758 7.52223L4.29561 9.32421C4.40497 9.67887 4.42007 10.0564 4.34091 10.4168C4.25603 10.8043 4.06334 11.1725 3.76233 11.473C3.34362 11.8917 2.79418 12.1016 2.24526 12.1016C1.69635 12.1016 1.14744 11.8922 0.728194 11.473C0.309484 11.0543 0.0996094 10.5048 0.0996094 9.95591C0.0996094 9.407 0.308964 8.85809 0.728194 8.43885C1.02869 8.13835 1.39688 7.94566 1.78435 7.86026C2.14526 7.7811 2.52232 7.7962 2.87696 7.90556L4.67467 6.10786L2.72898 4.17363C2.37953 4.28508 2.01029 4.30382 1.66084 4.22831C1.30724 4.15176 0.973412 3.97885 0.701036 3.70805C0.452098 3.46067 0.284406 3.16122 0.197441 2.84198C0.107865 2.51284 0.10422 2.16131 0.185983 1.82124C0.199003 1.76708 0.225564 1.72125 0.260977 1.68584C0.29639 1.65043 0.339615 1.62543 0.386487 1.61189C0.432316 1.59887 0.48179 1.59783 0.530221 1.60929C0.579695 1.62127 0.626567 1.64574 0.665622 1.6848L1.5421 2.55608L2.32068 2.34517L2.52691 1.56555L1.65043 0.694263C1.61085 0.655204 1.58585 0.608333 1.57387 0.559901C1.56189 0.511988 1.56346 0.461993 1.57596 0.415127C1.58898 0.368257 1.61345 0.325031 1.64887 0.289617C1.68428 0.254203 1.72959 0.226601 1.78375 0.213583C2.12226 0.130257 2.47431 0.131819 2.80448 0.219832H2.80396ZM3.41746 0.974979C3.6388 1.19475 3.78097 1.46556 3.8445 1.75303C3.91116 2.05248 3.89293 2.37172 3.7919 2.67326C3.77419 2.72533 3.77211 2.77897 3.78409 2.82949C3.79607 2.88053 3.82211 2.92792 3.86168 2.96698L5.96417 5.05692C5.96677 5.06005 5.96989 5.06317 5.97302 5.0663C5.97614 5.06942 5.97979 5.07307 5.98343 5.07567L7.12812 6.2136C7.13072 6.21672 7.13385 6.21985 7.13697 6.22297C7.1401 6.2261 7.14374 6.22974 7.14739 6.23235L9.24614 8.31856C9.2852 8.35762 9.33259 8.38314 9.38362 8.39512C9.43518 8.4071 9.48882 8.40449 9.54038 8.38679C9.84087 8.28367 10.1596 8.26388 10.4596 8.32846C10.7481 8.39095 11.0194 8.53104 11.2402 8.7503C11.4418 8.9508 11.5777 9.19401 11.6485 9.4544C11.7105 9.6825 11.723 9.92258 11.686 10.1585L10.833 9.31065C10.7965 9.2742 10.7523 9.2492 10.7043 9.23618C10.6564 9.22316 10.6059 9.22316 10.5564 9.2367L9.69349 9.47105C9.64349 9.48459 9.59974 9.51011 9.56485 9.54552C9.52996 9.58094 9.50444 9.62468 9.49142 9.67468L9.26227 10.5397C9.24925 10.5897 9.24925 10.6397 9.26175 10.6871V10.6876C9.27477 10.735 9.29976 10.7788 9.33674 10.8152L10.1893 11.6631C9.95283 11.7016 9.71223 11.6912 9.48463 11.6302C9.22424 11.561 8.98052 11.4266 8.77844 11.2261C8.5571 11.0064 8.41493 10.7355 8.3514 10.4481C8.28474 10.1486 8.30297 9.82938 8.404 9.52785C8.42171 9.47577 8.42379 9.42212 8.41181 9.37161C8.39983 9.32057 8.37379 9.27318 8.33421 9.23412L6.23173 7.14418C6.22913 7.14105 6.22601 7.13793 6.22288 7.1348C6.21976 7.13168 6.21611 7.12803 6.21246 7.12543L5.06778 5.9875C5.06518 5.98438 5.06205 5.98125 5.05893 5.97813C5.0558 5.975 5.05216 5.97136 5.04851 5.96875L2.94976 3.88254C2.9107 3.84348 2.86331 3.81796 2.81228 3.80598C2.76072 3.794 2.70708 3.79661 2.65552 3.81431C2.35503 3.91743 2.03631 3.93722 1.73634 3.87264C1.44782 3.81015 1.17649 3.67006 0.955672 3.4508C0.75413 3.2503 0.618209 3.00709 0.547375 2.7467C0.485402 2.5186 0.472903 2.27852 0.509878 2.0426L1.31658 2.84461C1.35304 2.88107 1.3973 2.90607 1.44521 2.91909C1.49313 2.9321 1.54364 2.93211 1.59312 2.91856L2.45607 2.68421H2.45659C2.50607 2.67067 2.54929 2.64515 2.58471 2.60974C2.6196 2.57433 2.64512 2.53058 2.65814 2.48058L2.88729 1.61555C2.90083 1.56556 2.90031 1.51504 2.88781 1.46765C2.87479 1.42026 2.84979 1.37651 2.81282 1.34005L2.00612 0.538046C2.24255 0.499508 2.48315 0.509923 2.71075 0.570855C2.97114 0.64012 3.21486 0.774477 3.41694 0.974979L3.41746 0.974979Z" fill="#B3B4B4"/>
<path fill-rule="evenodd" clip-rule="evenodd" d="M1.79205 9.504C1.66759 9.62847 1.6051 9.792 1.6051 9.95552C1.6051 10.119 1.66759 10.2826 1.79205 10.407C1.91652 10.5315 2.08006 10.594 2.24357 10.594C2.40711 10.594 2.57063 10.5315 2.69509 10.407C2.81956 10.282 2.88205 10.119 2.88205 9.95552C2.88205 9.79199 2.81956 9.62847 2.69509 9.504C2.57011 9.37901 2.40709 9.31704 2.24357 9.31704C2.08004 9.31704 1.91652 9.37954 1.79205 9.504ZM1.53478 9.24673C1.73061 9.0509 1.98682 8.95301 2.24357 8.95301C2.50032 8.95301 2.75656 9.05092 2.95236 9.24673C3.14817 9.44254 3.24609 9.69877 3.24609 9.95552C3.24609 10.2123 3.14818 10.4685 2.95236 10.6643C2.75655 10.8601 2.50032 10.958 2.24357 10.958C1.98682 10.958 1.73059 10.8601 1.53478 10.6643C1.33897 10.4685 1.24106 10.2123 1.24106 9.95552C1.24106 9.69877 1.33897 9.44254 1.53478 9.24673ZM9.50075 1.79525C9.37628 1.92024 9.31379 2.08325 9.31379 2.24677C9.31379 2.4103 9.37628 2.57382 9.50075 2.69829C9.62521 2.82276 9.78875 2.88525 9.95227 2.88525C10.1158 2.88525 10.2793 2.82276 10.4038 2.69829C10.5283 2.57383 10.5907 2.41029 10.5907 2.24677C10.5907 2.08324 10.5282 1.91972 10.4038 1.79525C10.2788 1.67026 10.1158 1.6083 9.95227 1.6083C9.78873 1.6083 9.62521 1.67079 9.50075 1.79525ZM9.24347 1.53798C9.4393 1.34216 9.69551 1.24426 9.95227 1.24426C10.209 1.24426 10.4652 1.34217 10.6611 1.53798C10.8569 1.73379 10.9548 1.99002 10.9548 2.24677C10.9548 2.50352 10.8569 2.75975 10.6611 2.95556C10.4652 3.15137 10.209 3.24928 9.95227 3.24928C9.69551 3.24928 9.43928 3.15138 9.24347 2.95556C9.04766 2.75975 8.94975 2.50352 8.94975 2.24677C8.94975 1.99002 9.04766 1.73379 9.24347 1.53798ZM5.83804 7.26454L3.95701 9.14558C3.90285 9.19974 3.88983 9.27942 3.91847 9.34608C4.03409 9.6648 4.05595 10.0101 3.98409 10.3392C3.91378 10.66 3.7539 10.9652 3.50392 11.2152C3.15603 11.5631 2.70035 11.737 2.24414 11.737C1.78792 11.737 1.33225 11.5631 0.984356 11.2152C0.636467 10.8673 0.462522 10.4116 0.462522 9.9554C0.462522 9.49918 0.636467 9.04351 0.984356 8.69562C1.23433 8.44564 1.53952 8.28576 1.86032 8.21544C2.19258 8.14253 2.54151 8.16545 2.86283 8.28419C2.93157 8.30919 3.005 8.29044 3.05396 8.242L4.93246 6.36404L5.83863 7.265L5.83804 7.26454ZM6.35778 4.93768L8.23882 3.05665C8.29298 3.00249 8.306 2.92281 8.27735 2.85615C8.16174 2.53743 8.13987 2.19214 8.21174 1.86301C8.28204 1.54221 8.44193 1.23702 8.69191 0.987044C9.03979 0.639155 9.49547 0.46521 9.95169 0.46521C10.4079 0.46521 10.8636 0.639155 11.2115 0.987044C11.5594 1.33493 11.7333 1.79061 11.7333 2.24683C11.7333 2.70304 11.5594 3.15872 11.2115 3.50661C10.9615 3.75659 10.6563 3.91647 10.3355 3.98678C10.0032 4.05969 9.65431 4.03677 9.333 3.91804C9.26425 3.89304 9.19082 3.91179 9.14187 3.96022L7.26337 5.83819L6.35719 4.93723L6.35778 4.93768ZM2.80396 0.219832C3.12424 0.304721 3.42474 0.47085 3.67315 0.717708C3.94501 0.987991 4.11999 1.32077 4.19811 1.6744C4.2757 2.02333 4.25956 2.39256 4.15019 2.74253L6.10002 4.68089L7.902 2.87892C7.79263 2.52425 7.77753 2.14669 7.85669 1.78631C7.94158 1.39885 8.13426 1.03064 8.43528 0.730147C8.85399 0.311437 9.40342 0.101562 9.95234 0.101562C10.5013 0.101562 11.0502 0.310917 11.4694 0.730147C11.8881 1.14886 12.098 1.69829 12.098 2.24721C12.098 2.79614 11.8886 3.34504 11.4694 3.76428C11.1689 4.06477 10.8007 4.25746 10.4132 4.34287C10.0523 4.42203 9.67529 4.40692 9.32064 4.29756L7.52293 6.09527L9.46863 8.0295C9.81807 7.91805 10.1873 7.8993 10.5368 7.97481C10.8904 8.05137 11.2242 8.22427 11.4966 8.49507C11.7455 8.74245 11.9132 9.04191 12.0002 9.36114C12.0897 9.69029 12.0934 10.0418 12.0116 10.3819C11.9986 10.436 11.972 10.4819 11.9366 10.5173C11.9012 10.5527 11.858 10.5777 11.8111 10.5912C11.7653 10.6043 11.7158 10.6053 11.6674 10.5938C11.6179 10.5819 11.571 10.5574 11.532 10.5183L10.6097 9.60122L9.83109 9.81213L9.62486 10.5918L10.5477 11.5089C10.5873 11.5479 10.6123 11.5948 10.6242 11.6432C10.6362 11.6917 10.6347 11.7411 10.6222 11.788C10.6091 11.8349 10.5847 11.8781 10.5493 11.9135C10.5138 11.9494 10.4685 11.9765 10.4144 11.9895C10.0759 12.0729 9.72381 12.0713 9.39364 11.9833C9.07336 11.8984 8.77287 11.7323 8.52445 11.4854C8.25259 11.2151 8.07761 10.8823 7.99949 10.5287C7.9219 10.1798 7.93804 9.81056 8.04741 9.4606L6.09758 7.52223L4.29561 9.32421C4.40497 9.67887 4.42007 10.0564 4.34091 10.4168C4.25603 10.8043 4.06334 11.1725 3.76233 11.473C3.34362 11.8917 2.79418 12.1016 2.24526 12.1016C1.69635 12.1016 1.14744 11.8922 0.728194 11.473C0.309484 11.0543 0.0996094 10.5048 0.0996094 9.95591C0.0996094 9.407 0.308964 8.85809 0.728194 8.43885C1.02869 8.13835 1.39688 7.94566 1.78435 7.86026C2.14526 7.7811 2.52232 7.7962 2.87696 7.90556L4.67467 6.10786L2.72898 4.17363C2.37953 4.28508 2.01029 4.30382 1.66084 4.22831C1.30724 4.15176 0.973412 3.97885 0.701036 3.70805C0.452098 3.46067 0.284406 3.16122 0.197441 2.84198C0.107865 2.51284 0.10422 2.16131 0.185983 1.82124C0.199003 1.76708 0.225564 1.72125 0.260977 1.68584C0.29639 1.65043 0.339615 1.62543 0.386487 1.61189C0.432316 1.59887 0.48179 1.59783 0.530221 1.60929C0.579695 1.62127 0.626567 1.64574 0.665622 1.6848L1.5421 2.55608L2.32068 2.34517L2.52691 1.56555L1.65043 0.694263C1.61085 0.655204 1.58585 0.608333 1.57387 0.559901C1.56189 0.511988 1.56346 0.461993 1.57596 0.415127C1.58898 0.368257 1.61345 0.325031 1.64887 0.289617C1.68428 0.254203 1.72959 0.226601 1.78375 0.213583C2.12226 0.130257 2.47431 0.131819 2.80448 0.219832H2.80396ZM3.41746 0.974979C3.6388 1.19475 3.78097 1.46556 3.8445 1.75303C3.91116 2.05248 3.89293 2.37172 3.7919 2.67326C3.77419 2.72533 3.77211 2.77897 3.78409 2.82949C3.79607 2.88053 3.82211 2.92792 3.86168 2.96698L5.96417 5.05692C5.96677 5.06005 5.96989 5.06317 5.97302 5.0663C5.97614 5.06942 5.97979 5.07307 5.98343 5.07567L7.12812 6.2136C7.13072 6.21672 7.13385 6.21985 7.13697 6.22297C7.1401 6.2261 7.14374 6.22974 7.14739 6.23235L9.24614 8.31856C9.2852 8.35762 9.33259 8.38314 9.38362 8.39512C9.43518 8.4071 9.48882 8.40449 9.54038 8.38679C9.84087 8.28367 10.1596 8.26388 10.4596 8.32846C10.7481 8.39095 11.0194 8.53104 11.2402 8.7503C11.4418 8.9508 11.5777 9.19401 11.6485 9.4544C11.7105 9.6825 11.723 9.92258 11.686 10.1585L10.833 9.31065C10.7965 9.2742 10.7523 9.2492 10.7043 9.23618C10.6564 9.22316 10.6059 9.22316 10.5564 9.2367L9.69349 9.47105C9.64349 9.48459 9.59974 9.51011 9.56485 9.54552C9.52996 9.58094 9.50444 9.62468 9.49142 9.67468L9.26227 10.5397C9.24925 10.5897 9.24925 10.6397 9.26175 10.6871V10.6876C9.27477 10.735 9.29976 10.7788 9.33674 10.8152L10.1893 11.6631C9.95283 11.7016 9.71223 11.6912 9.48463 11.6302C9.22424 11.561 8.98052 11.4266 8.77844 11.2261C8.5571 11.0064 8.41493 10.7355 8.3514 10.4481C8.28474 10.1486 8.30297 9.82938 8.404 9.52785C8.42171 9.47577 8.42379 9.42212 8.41181 9.37161C8.39983 9.32057 8.37379 9.27318 8.33421 9.23412L6.23173 7.14418C6.22913 7.14105 6.22601 7.13793 6.22288 7.1348C6.21976 7.13168 6.21611 7.12803 6.21246 7.12543L5.06778 5.9875C5.06518 5.98438 5.06205 5.98125 5.05893 5.97813C5.0558 5.975 5.05216 5.97136 5.04851 5.96875L2.94976 3.88254C2.9107 3.84348 2.86331 3.81796 2.81228 3.80598C2.76072 3.794 2.70708 3.79661 2.65552 3.81431C2.35503 3.91743 2.03631 3.93722 1.73634 3.87264C1.44782 3.81015 1.17649 3.67006 0.955672 3.4508C0.75413 3.2503 0.618209 3.00709 0.547375 2.7467C0.485402 2.5186 0.472903 2.27852 0.509878 2.0426L1.31658 2.84461C1.35304 2.88107 1.3973 2.90607 1.44521 2.91909C1.49313 2.9321 1.54364 2.93211 1.59312 2.91856L2.45607 2.68421H2.45659C2.50607 2.67067 2.54929 2.64515 2.58471 2.60974C2.6196 2.57433 2.64512 2.53058 2.65814 2.48058L2.88729 1.61555C2.90083 1.56556 2.90031 1.51504 2.88781 1.46765C2.87479 1.42026 2.84979 1.37651 2.81282 1.34005L2.00612 0.538046C2.24255 0.499508 2.48315 0.509923 2.71075 0.570855C2.97114 0.64012 3.21486 0.774477 3.41694 0.974979L3.41746 0.974979Z" stroke="#B3B4B4" stroke-width="0.2" mask="url(#path-1-outside-1_6484_17069)"/>
</svg>
