<svg width="20" height="20" viewBox="0 0 20 20" fill="none" xmlns="http://www.w3.org/2000/svg">
<path d="M0 7.23807C0 4.70452 0 3.43774 0.493064 2.47004C0.926779 1.61884 1.61884 0.926779 2.47004 0.493064C3.43774 0 4.70452 0 7.23807 0H12.7619C15.2955 0 16.5623 0 17.5299 0.493064C18.3811 0.926779 19.0732 1.61884 19.5069 2.47004C20 3.43774 20 4.70452 20 7.23807V12.7619C20 15.2955 20 16.5623 19.5069 17.5299C19.0732 18.3811 18.3811 19.0732 17.5299 19.5069C16.5623 20 15.2955 20 12.7619 20H7.23807C4.70452 20 3.43774 20 2.47004 19.5069C1.61884 19.0732 0.926779 18.3811 0.493064 17.5299C0 16.5623 0 15.2955 0 12.7619V7.23807Z" fill="#330000"/>
<path d="M9.69074 12.5687H6.59152L5.96095 14.5778C5.94345 14.6524 5.87474 14.7053 5.79995 14.7015H4.2302C4.14067 14.7015 4.10937 14.6511 4.13628 14.5502L6.8196 6.62404C6.84645 6.54147 6.87331 6.44747 6.9001 6.34197C6.93524 6.15833 6.95317 5.97175 6.95381 5.78468C6.9461 5.7294 6.99467 5.68057 7.04767 5.68831H9.18095C9.24345 5.68831 9.27917 5.71125 9.28824 5.75711L12.3339 14.564C12.3607 14.6558 12.3339 14.7016 12.2534 14.7015H10.5092C10.448 14.7085 10.3896 14.6666 10.375 14.6053L9.69074 12.5687ZM7.07452 10.8348H9.19438C8.8461 9.64468 8.45302 8.47018 8.13445 7.27083C7.79074 8.47225 7.41574 9.66883 7.07452 10.8348Z" fill="#FF9A00"/>
<path d="M14.1456 7.147C14.0087 7.15264 13.8723 7.12857 13.7451 7.07643C13.618 7.02429 13.503 6.94514 13.4077 6.84429C13.3127 6.739 13.2388 6.61557 13.1905 6.48093C13.1421 6.34636 13.1202 6.20329 13.1259 6.05993C13.121 5.918 13.1454 5.77664 13.1974 5.64504C13.2495 5.51344 13.328 5.39457 13.4278 5.2962C13.5267 5.19885 13.6434 5.12258 13.7712 5.0718C13.899 5.02102 14.0354 4.99674 14.1724 5.00035C14.4945 5.00035 14.7471 5.09897 14.9305 5.2962C15.023 5.3987 15.095 5.51892 15.1422 5.64997C15.1893 5.781 15.2109 5.92036 15.2055 6.05993C15.2111 6.20379 15.1885 6.34743 15.1389 6.48214C15.0894 6.61686 15.0139 6.74 14.917 6.84429C14.8158 6.94664 14.695 7.02636 14.5622 7.0785C14.4295 7.13057 14.2876 7.15393 14.1456 7.147ZM13.2198 14.564V7.98643C13.2198 7.90386 13.2555 7.86257 13.3272 7.86257H14.9775C15.0489 7.86257 15.0847 7.90386 15.0847 7.98643V14.564C15.0847 14.6559 15.049 14.7017 14.9775 14.7016H13.3406C13.2601 14.7016 13.2198 14.6558 13.2198 14.564Z" fill="#FF9A00"/>
</svg>
