<svg width="17" height="18" viewBox="0 0 17 18" fill="none" xmlns="http://www.w3.org/2000/svg">
<path d="M3.53273 6.1612V17.9998H0.300847V6.1612H3.53273Z" fill="#F8F9FA"/>
<path d="M13.0783 5.86062C14.7141 5.93153 15.6555 6.52682 16.2105 7.42448C16.8207 8.41147 17 9.81684 17 11.4791V18H13.7717V12.2501C13.7717 11.5439 13.7688 10.6662 13.4975 9.96597C13.3588 9.60787 13.1451 9.28184 12.8157 9.04723C12.4857 8.81217 12.063 8.68572 11.5349 8.68571C11.0079 8.68571 10.5722 8.79041 10.2185 8.99015C9.86333 9.19076 9.60657 9.47819 9.42453 9.81466C9.06757 10.4747 8.99464 11.3327 8.99462 12.146V18H5.7663V6.16143H8.84331V7.85485H9.33196L9.4094 7.70626C9.86895 6.81903 11.0107 5.85337 12.7419 5.85337L13.0783 5.86062Z" fill="#F8F9FA"/>
<path d="M2.11394 0.00996665C3.07829 0.110413 3.83338 0.943378 3.83357 1.95437C3.83357 3.03428 2.97412 3.91042 1.91812 3.91055C0.858561 3.91055 0 3.03424 0 1.95437C0.000403249 0.875993 0.858973 0 1.91812 0L2.11394 0.00996665Z" fill="#F8F9FA"/>
</svg>
