<svg width="21" height="15" viewBox="0 0 21 15" fill="none" xmlns="http://www.w3.org/2000/svg">
<path d="M2.25 0C1.001 0 0 1.05413 0 2.3047V12.6875C0 13.9381 1.001 15 2.25 15H18.75C19.999 15 21 13.9381 21 12.6875V2.3047C21 1.05413 19.999 0 18.75 0H2.25ZM2.35937 1.5H18.6485L10.9453 8.8125C10.665 9.07868 10.3514 9.07895 10.0703 8.8125L2.35937 1.5ZM1.5 2.75L6.60937 7.59375L1.5 12.6875V2.75ZM19.5 2.75V12.6875L14.4062 7.58595L19.5 2.75ZM13.3281 8.6172L18.1953 13.5H2.8125L7.6953 8.625L9.03905 9.89845C9.8536 10.6705 11.1622 10.6717 11.9765 9.89845L13.3281 8.6172Z" fill="#B3B4B4"/>
</svg>
